ply
format ascii 1.0
comment Created by Open Asset Import Library - http://assimp.sf.net (v5.0.1588609223)
element vertex 36
property float x
property float y
property float z
property float nx
property float ny
property float nz
property float s
property float t
element face 12
property list uchar int vertex_index
end_header
1 1 -1 0 0 -1 0.74857301 0.75041199
1 -1 -1 0 0 -1 0.74927902 0.501284
-1 -1 -1 0 0 -1 0.99910998 0.501077
1 1 -1 0 0 -1 0.74857301 0.75041199
-1 -1 -1 0 0 -1 0.99910998 0.501077
-1 1 -1 0 0 -1 0.99945498 0.75037998
-1 -1 1 -1 -0 -0 0.250471 0.50070202
-1 1 1 -1 -0 -0 0.24968199 0.749677
-1 1 -1 -1 -0 -0 0.001085 0.75037998
-1 -1 1 -1 -0 -0 0.250471 0.50070202
-1 1 -1 -1 -0 -0 0.001085 0.75037998
-1 -1 -1 -1 -0 -0 0.001517 0.49999401
1 -1 1 -0 -0 1 0.49942201 0.50023901
0.99999899 1 1.000001 -0 -0 1 0.50014901 0.750166
-1 -1 1 -0 -0 1 0.250471 0.50070202
0.99999899 1 1.000001 -1e-06 0 1 0.50014901 0.750166
-1 1 1 -1e-06 0 1 0.24968199 0.749677
-1 -1 1 -1e-06 0 1 0.250471 0.50070202
1 -1 -1 1 -0 0 0.74927902 0.501284
1 1 -1 1 -0 0 0.74857301 0.75041199
1 -1 1 1 -0 0 0.49942201 0.50023901
1 1 -1 1 0 1e-06 0.74857301 0.75041199
0.99999899 1 1.000001 1 0 1e-06 0.50014901 0.750166
1 -1 1 1 0 1e-06 0.49942201 0.50023901
1 1 -1 0 1 -0 0.74857301 0.75041199
-1 1 -1 0 1 -0 0.74835497 0.99822998
0.99999899 1 1.000001 0 1 -0 0.50014901 0.750166
-1 1 -1 0 1 -0 0.74835497 0.99822998
-1 1 1 0 1 -0 0.500193 0.99872798
0.99999899 1 1.000001 0 1 -0 0.50014901 0.750166
1 -1 -1 -0 -1 0 0.74927902 0.501284
1 -1 1 -0 -1 0 0.49942201 0.50023901
-1 -1 1 -0 -1 0 0.49899301 0.250415
1 -1 -1 -0 -1 0 0.74927902 0.501284
-1 -1 1 -0 -1 0 0.49899301 0.250415
-1 -1 -1 -0 -1 0 0.74895298 0.25092
3 0 1 2
3 3 4 5
3 6 7 8
3 9 10 11
3 12 13 14
3 15 16 17
3 18 19 20
3 21 22 23
3 24 25 26
3 27 28 29
3 30 31 32
3 33 34 35
